<svg xmlns="http://www.w3.org/2000/svg" xmlns:xlink="http://www.w3.org/1999/xlink" version="1.1" x="0px" y="0px" viewBox="0 0 100 125" style="enable-background:new 0 0 100 100;" xml:space="preserve"><style type="text/css">
	.st0{fill:#FFFFFF;}
</style><g><g><path class="st0" d="M43.3,34.1C41.5,32.8,39.3,32,37,32c-2.7,0-5.3,1.1-7.3,3c-1.9,1.9-3,4.5-3,7.3s1.1,5.3,3,7.3l13.5,13.5    l13.5-13.5c1.9-1.9,3-4.5,3-7.3s-1.1-5.3-3-7.3c-1.9-1.9-4.5-3-7.3-3C47.2,32,45,32.8,43.3,34.1z M56.8,42.3    c0,1.9-0.8,3.8-2.1,5.2L43.3,58.8L31.9,47.5c-1.4-1.4-2.1-3.2-2.1-5.2s0.8-3.8,2.1-5.2S35.1,35,37,35s3.8,0.8,5.2,2.1l1.1,1.1    l1.1-1.1c1.4-1.4,3.2-2.1,5.2-2.1s3.8,0.8,5.2,2.1S56.8,40.4,56.8,42.3z M67.9,11.8c0.8,0,1.5,0.7,1.5,1.5s-0.7,1.5-1.5,1.5H19.8    c-0.8,0-1.5-0.7-1.5-1.5s0.7-1.5,1.5-1.5H67.9z M51.8,76.8c0,0.5-0.1,1-0.1,1.5s0,1,0.1,1.5H24.2c-5.5,0-9.9-5.2-9.9-11.5v-55    c0-3.6,2.6-6.5,5.7-6.5h50.7c0.8,0,1.5,0.7,1.5,1.5s-0.7,1.5-1.5,1.5H20c-1.5,0-2.7,1.6-2.7,3.5s1.2,3.5,2.7,3.5h50.8    c0.8,0,1.5,0.7,1.5,1.5v41.1c-0.5,0-1-0.1-1.5-0.1s-1,0-1.5,0.1V19.8H20c-1,0-1.9-0.3-2.7-0.8v49.3c0,4.7,3.1,8.5,6.9,8.5H51.8z     M70.7,61.8c-9.1,0-16.5,7.4-16.5,16.5s7.4,16.5,16.5,16.5s16.5-7.4,16.5-16.5S79.8,61.8,70.7,61.8z M70.7,91.8    c-7.4,0-13.5-6.1-13.5-13.5s6.1-13.5,13.5-13.5s13.5,6.1,13.5,13.5S78.2,91.8,70.7,91.8z M79.7,78.3c0,0.8-0.7,1.5-1.5,1.5h-6v6    c0,0.8-0.7,1.5-1.5,1.5s-1.5-0.7-1.5-1.5v-6h-6c-0.8,0-1.5-0.7-1.5-1.5s0.7-1.5,1.5-1.5h6v-6c0-0.8,0.7-1.5,1.5-1.5    s1.5,0.7,1.5,1.5v6h6C79.1,76.8,79.7,77.4,79.7,78.3z"/></g><g><path d="M43.3,34.1C41.5,32.8,39.3,32,37,32c-2.7,0-5.3,1.1-7.3,3c-1.9,1.9-3,4.5-3,7.3s1.1,5.3,3,7.3l13.5,13.5l13.5-13.5    c1.9-1.9,3-4.5,3-7.3s-1.1-5.3-3-7.3c-1.9-1.9-4.5-3-7.3-3C47.2,32,45,32.8,43.3,34.1z M56.8,42.3c0,1.9-0.8,3.8-2.1,5.2    L43.3,58.8L31.9,47.5c-1.4-1.4-2.1-3.2-2.1-5.2s0.8-3.8,2.1-5.2S35.1,35,37,35s3.8,0.8,5.2,2.1l1.1,1.1l1.1-1.1    c1.4-1.4,3.2-2.1,5.2-2.1s3.8,0.8,5.2,2.1S56.8,40.4,56.8,42.3z M67.9,11.8c0.8,0,1.5,0.7,1.5,1.5s-0.7,1.5-1.5,1.5H19.8    c-0.8,0-1.5-0.7-1.5-1.5s0.7-1.5,1.5-1.5H67.9z M51.8,76.8c0,0.5-0.1,1-0.1,1.5s0,1,0.1,1.5H24.2c-5.5,0-9.9-5.2-9.9-11.5v-55    c0-3.6,2.6-6.5,5.7-6.5h50.7c0.8,0,1.5,0.7,1.5,1.5s-0.7,1.5-1.5,1.5H20c-1.5,0-2.7,1.6-2.7,3.5s1.2,3.5,2.7,3.5h50.8    c0.8,0,1.5,0.7,1.5,1.5v41.1c-0.5,0-1-0.1-1.5-0.1s-1,0-1.5,0.1V19.8H20c-1,0-1.9-0.3-2.7-0.8v49.3c0,4.7,3.1,8.5,6.9,8.5H51.8z     M70.7,61.8c-9.1,0-16.5,7.4-16.5,16.5s7.4,16.5,16.5,16.5s16.5-7.4,16.5-16.5S79.8,61.8,70.7,61.8z M70.7,91.8    c-7.4,0-13.5-6.1-13.5-13.5s6.1-13.5,13.5-13.5s13.5,6.1,13.5,13.5S78.2,91.8,70.7,91.8z M79.7,78.3c0,0.8-0.7,1.5-1.5,1.5h-6v6    c0,0.8-0.7,1.5-1.5,1.5s-1.5-0.7-1.5-1.5v-6h-6c-0.8,0-1.5-0.7-1.5-1.5s0.7-1.5,1.5-1.5h6v-6c0-0.8,0.7-1.5,1.5-1.5    s1.5,0.7,1.5,1.5v6h6C79.1,76.8,79.7,77.4,79.7,78.3z"/></g></g><text x="0" y="115" fill="#000000" font-size="5px" font-weight="bold" font-family="'Helvetica Neue', Helvetica, Arial-Unicode, Arial, Sans-serif">Created by Pravin Unagar</text><text x="0" y="120" fill="#000000" font-size="5px" font-weight="bold" font-family="'Helvetica Neue', Helvetica, Arial-Unicode, Arial, Sans-serif">from the Noun Project</text></svg>